<?xml version="1.0" encoding="UTF-8" standalone="no"?>
<svg
   xmlns:dc="http://purl.org/dc/elements/1.1/"
   xmlns:cc="http://creativecommons.org/ns#"
   xmlns:rdf="http://www.w3.org/1999/02/22-rdf-syntax-ns#"
   xmlns:svg="http://www.w3.org/2000/svg"
   xmlns="http://www.w3.org/2000/svg"
   id="svg8"
   version="1.1"
   viewBox="0 0 126.34096 24.126068"
   height="24.126068mm"
   width="126.34096mm">
  <defs
     id="defs2" />
  <metadata
     id="metadata5">
    <rdf:RDF>
      <cc:Work
         rdf:about="">
        <dc:format>image/svg+xml</dc:format>
        <dc:type
           rdf:resource="http://purl.org/dc/dcmitype/StillImage" />
        <dc:title></dc:title>
      </cc:Work>
    </rdf:RDF>
  </metadata>
  <g
     transform="translate(-26.32509,-130.95227)"
     id="layer1">
    <g
       transform="matrix(0.65969115,0,0,0.65969115,44.862373,54.608705)"
       id="g1568">
      <path
         id="path877"
         style="fill:#f0ccab;fill-opacity:1;fill-rule:nonzero;stroke:none;stroke-width:0.00851086"
         d="m 2.52898,135.16031 -0.2135322,-0.90646 -0.3950164,-0.41547 -1.53045176,1.69279 1.13886216,0.68653 1.6559989,1.74176 1.0001382,-1.05739 -1.6559989,-1.74176" />
      <path
         id="path879"
         style="fill:#a38d60;fill-opacity:1;fill-rule:nonzero;stroke:none;stroke-width:0.00851086"
         d="m 2.5503297,133.44353 1.6518045,-1.74627 -1.0027279,-1.05466 -1.6518047,1.74627 -0.85951698,0.22517 -0.30087747,0.31819 -0.093119,0.0984 -0.68701037,0.72634 -0.0691148,0.0731 -0.40061805,0.42364 c -0.10512078,0.11105 -0.10490011,0.291 4.0996e-4,0.40176 0.10174151,0.10702 0.26377435,0.1095 0.36948902,0.01 -0.0867071,0.12291 -0.0781228,0.29691 0.0277681,0.40828 0.11203199,0.11784 0.29014401,0.12074 0.40687008,0.0114 -0.10261796,0.12451 -0.09882362,0.31258 0.01362357,0.43086 0.10132679,0.10657 0.25657738,0.12043 0.37259633,0.0427 -0.0861499,0.10412 -0.0830558,0.26178 0.011052,0.36076 0.0981732,0.10326 0.25721904,0.10304 0.35513867,-4.8e-4 l 0.41361324,-0.43729 0.078468,-0.083 0.7130008,-0.75382 0.6509559,-1.20094" />
      <path
         id="path881"
         style="fill:#f0ccab;fill-opacity:1;fill-rule:nonzero;stroke:none;stroke-width:0.00851086"
         d="m -0.80436443,134.27497 0.47692436,0.50162 c 0.0948539,0.0999 0.24859537,0.0996 0.34320403,-4.6e-4 0.09469158,-0.10012 0.09449289,-0.26215 -4.439e-4,-0.362 l -0.47684144,-0.50163 c -0.0949368,-0.0999 -0.2486783,-0.0996 -0.34328695,4.7e-4 -0.0946916,0.10011 -0.0944929,0.26215 4.439e-4,0.362" />
      <path
         id="path883"
         style="fill:#f0ccab;fill-opacity:1;fill-rule:nonzero;stroke:none;stroke-width:0.00851086"
         d="m 0.0025002,133.42192 0.47692437,0.50162 c 0.0949367,0.0998 0.24859526,0.0996 0.34328696,-4.7e-4 0.0946916,-0.10011 0.0944928,-0.26223 -4.439e-4,-0.362 l -0.47692437,-0.50162 c -0.0949368,-0.0999 -0.24859537,-0.0996 -0.34328695,4.7e-4 -0.09469159,0.10011 -0.0944929,0.26215 4.4389e-4,0.362" />
      <path
         id="path885"
         style="fill:#f0ccab;fill-opacity:1;fill-rule:nonzero;stroke:none;stroke-width:0.00851086"
         d="m 0.38609858,132.97444 0.37534869,0.39479 c 0.0839825,0.0883 0.21990495,0.0882 0.30367053,-4.1e-4 0.083683,-0.0886 0.083507,-0.23189 -3.927e-4,-0.32023 l -0.37534858,-0.3947 c -0.0839825,-0.0883 -0.21990471,-0.0881 -0.3036705,4.2e-4 -0.0836827,0.0885 -0.0835069,0.23189 3.9256e-4,0.32013" />
      <path
         id="path887"
         style="fill:#f0ccab;fill-opacity:1;fill-rule:nonzero;stroke:none;stroke-width:0.00851086"
         d="m -0.40093211,133.84844 0.61426747,0.64608 c 0.0949365,0.0999 0.24859513,0.0996 0.34328672,-4.6e-4 0.0946916,-0.10012 0.0944929,-0.26215 -4.439e-4,-0.362 l -0.61426724,-0.64608 c -0.09493679,-0.0999 -0.24859536,-0.0997 -0.34328695,4.6e-4 -0.0946916,0.10012 -0.0944929,0.26215 4.439e-4,0.362" />
      <path
         id="path889"
         style="fill:#f0ccab;fill-opacity:1;fill-rule:nonzero;stroke:none;stroke-width:0.00851086"
         d="m 2.0281752,134.85256 0.2276061,-0.66077 -0.207802,-0.22127 c -0.061921,-0.0756 -0.1602626,-0.1134 -0.258526,-0.0876 l -0.4812878,0.13044 c -0.1390272,0.0366 -0.223631,0.18507 -0.1888905,0.33167 0.034658,0.1467 0.175497,0.23591 0.314524,0.19928 l 0.2379511,-0.0645 0.3564251,0.3727" />
      <path
         id="path891"
         style="fill:#f0ccab;fill-opacity:1;fill-rule:nonzero;stroke:none;stroke-width:0.00851086"
         d="m -11.173197,120.74851 0.860149,0.22283 0.3950163,0.41547 -1.6013233,1.61826 -0.653982,-1.19917 -1.655998,-1.74176 1.000139,-1.05739 1.655999,1.74176" />
      <path
         id="path893"
         style="fill:#a38d60;fill-opacity:1;fill-rule:nonzero;stroke:none;stroke-width:0.00851086"
         d="m -9.5452266,120.72156 1.6517214,-1.74636 1.0027288,1.05466 -1.6517209,1.74636 -0.2113085,0.90695 -0.3008781,0.3181 -0.093118,0.0984 -0.6870113,0.72633 -0.069115,0.0731 -0.4007008,0.42363 c -0.105037,0.11106 -0.275686,0.11129 -0.380997,5.2e-4 -0.101741,-0.10701 -0.104521,-0.27787 -0.01002,-0.3896 -0.116332,0.0918 -0.281356,0.0832 -0.387246,-0.0282 -0.112032,-0.11783 -0.115246,-0.30564 -0.01187,-0.42902 -0.117807,0.10854 -0.296169,0.10502 -0.408615,-0.0132 -0.101326,-0.10657 -0.114871,-0.27025 -0.0415,-0.39279 -0.09852,0.0911 -0.248035,0.0883 -0.342141,-0.0107 -0.09818,-0.10326 -0.09838,-0.27098 -4.6e-4,-0.3745 l 0.413613,-0.43729 0.07847,-0.083 0.713001,-0.75382 1.1371741,-0.68954" />
      <path
         id="path895"
         style="fill:#f0ccab;fill-opacity:1;fill-rule:nonzero;stroke:none;stroke-width:0.00851086"
         d="m -10.32501,124.26126 -0.476924,-0.50162 c -0.09494,-0.0998 -0.09514,-0.26189 -4.43e-4,-0.36191 0.09469,-0.10011 0.24835,-0.10032 0.343285,-4.7e-4 l 0.4769259,0.50154 c 0.094937,0.0999 0.095136,0.26197 4.439e-4,0.362 -0.094692,0.10011 -0.2483508,0.10032 -0.3432878,4.6e-4" />
      <path
         id="path897"
         style="fill:#f0ccab;fill-opacity:1;fill-rule:nonzero;stroke:none;stroke-width:0.00851086"
         d="m -9.518145,123.40821 -0.4768412,-0.50162 c -0.094937,-0.0999 -0.095136,-0.26189 -4.439e-4,-0.362 0.094608,-0.10011 0.2483506,-0.10032 0.3432033,-4.7e-4 l 0.4769258,0.50162 c 0.094935,0.0999 0.095134,0.26189 4.439e-4,0.362 -0.09461,0.10012 -0.2483507,0.10033 -0.3432879,4.7e-4" />
      <path
         id="path899"
         style="fill:#f0ccab;fill-opacity:1;fill-rule:nonzero;stroke:none;stroke-width:0.00851086"
         d="m -9.094795,123.00255 -0.3753501,-0.39479 c -0.083982,-0.0883 -0.084158,-0.23166 -3.927e-4,-0.32022 0.083766,-0.0885 0.2196889,-0.0887 0.303671,-4.2e-4 l 0.3752655,0.39479 c 0.083982,0.0883 0.084158,0.23166 3.927e-4,0.32022 -0.083683,0.0886 -0.2196887,0.0888 -0.3035864,4.2e-4" />
      <path
         id="path901"
         style="fill:#f0ccab;fill-opacity:1;fill-rule:nonzero;stroke:none;stroke-width:0.00851086"
         d="m -9.9215776,123.83474 -0.6142674,-0.64608 c -0.09494,-0.0999 -0.09514,-0.26189 -4.43e-4,-0.362 0.09469,-0.10003 0.24835,-0.10024 0.343287,-4.7e-4 l 0.6142674,0.64608 c 0.094935,0.0999 0.095134,0.26189 4.439e-4,0.362 -0.094692,0.10011 -0.2483506,0.10032 -0.3432879,4.7e-4" />
      <path
         id="path903"
         style="fill:#f0ccab;fill-opacity:1;fill-rule:nonzero;stroke:none;stroke-width:0.00851086"
         d="m -10.880069,121.27582 0.626109,-0.24172 0.210285,0.21856 c 0.071853,0.0651 0.1079505,0.1687 0.08371,0.27239 l -0.122454,0.50786 c -0.0343,0.1467 -0.174918,0.2363 -0.314034,0.20004 -0.139116,-0.0362 -0.224083,-0.18445 -0.189787,-0.33115 l 0.06053,-0.251 -0.354356,-0.37498" />
      <path
         id="path905"
         style="fill:#f0ccab;fill-opacity:1;fill-rule:nonzero;stroke:none;stroke-width:0.00851086"
         d="m -23.148202,133.40909 0.213532,0.90637 0.395019,0.41547 1.53045,-1.69279 -1.138861,-0.68644 -1.655999,-1.74185 -1.000139,1.05739 1.655998,1.74185" />
      <path
         id="path907"
         style="fill:#ddab7c;fill-opacity:1;fill-rule:nonzero;stroke:none;stroke-width:0.00851086"
         d="m -23.169635,135.12578 -1.651721,1.74627 1.002729,1.05466 1.651722,-1.74627 0.8596,-0.22517 0.300878,-0.3181 0.09312,-0.0984 0.687012,-0.72634 0.06912,-0.0731 0.400617,-0.42364 c 0.105121,-0.11105 0.1049,-0.291 -4.93e-4,-0.40176 -0.101743,-0.10702 -0.263775,-0.10942 -0.369406,-0.01 0.08671,-0.12291 0.07812,-0.29691 -0.02777,-0.40829 -0.112032,-0.11783 -0.290229,-0.12073 -0.406871,-0.0113 0.102617,-0.1245 0.09882,-0.31267 -0.01361,-0.43085 -0.101327,-0.10657 -0.256577,-0.12052 -0.372598,-0.0428 0.08615,-0.10412 0.08306,-0.26169 -0.01106,-0.36076 -0.09826,-0.10326 -0.25722,-0.10304 -0.355138,4.8e-4 l -0.413613,0.43729 -0.07847,0.083 -0.713001,0.75373 -0.651039,1.20094" />
      <path
         id="path909"
         style="fill:#f0ccab;fill-opacity:1;fill-rule:nonzero;stroke:none;stroke-width:0.00851086"
         d="m -19.814856,134.29434 -0.476926,-0.50163 c -0.09485,-0.0998 -0.248593,-0.0995 -0.343286,4.7e-4 -0.09461,0.10011 -0.09441,0.26224 4.44e-4,0.362 l 0.476924,0.50163 c 0.09494,0.0999 0.248596,0.0996 0.343288,-4.7e-4 0.09469,-0.10011 0.09449,-0.26215 -4.44e-4,-0.362" />
      <path
         id="path911"
         style="fill:#f0ccab;fill-opacity:1;fill-rule:nonzero;stroke:none;stroke-width:0.00851086"
         d="m -20.621721,135.14748 -0.476924,-0.50163 c -0.09494,-0.0999 -0.248595,-0.0996 -0.343288,4.7e-4 -0.09469,0.10011 -0.09449,0.26215 4.44e-4,0.362 l 0.476924,0.50163 c 0.09494,0.0998 0.248596,0.0995 0.343288,-4.7e-4 0.09461,-0.10011 0.09441,-0.26224 -4.44e-4,-0.362" />
      <path
         id="path913"
         style="fill:#f0ccab;fill-opacity:1;fill-rule:nonzero;stroke:none;stroke-width:0.00851086"
         d="m -21.005321,135.59486 -0.375348,-0.39478 c -0.08398,-0.0883 -0.219905,-0.0881 -0.303671,4.1e-4 -0.08368,0.0886 -0.08351,0.23189 3.93e-4,0.32023 l 0.37535,0.39478 c 0.08398,0.0882 0.219903,0.0881 0.303669,-4.1e-4 0.08368,-0.0886 0.08351,-0.23189 -3.93e-4,-0.32023" />
      <path
         id="path915"
         style="fill:#f0ccab;fill-opacity:1;fill-rule:nonzero;stroke:none;stroke-width:0.00851086"
         d="m -20.218289,134.72086 -0.614267,-0.64608 c -0.09494,-0.0998 -0.248596,-0.0995 -0.343288,4.7e-4 -0.09469,0.10012 -0.09449,0.26224 4.44e-4,0.362 l 0.614267,0.64608 c 0.09494,0.0999 0.248596,0.0996 0.343288,-4.7e-4 0.09469,-0.10002 0.09449,-0.26214 -4.44e-4,-0.362" />
      <path
         id="path917"
         style="fill:#f0ccab;fill-opacity:1;fill-rule:nonzero;stroke:none;stroke-width:0.00851086"
         d="m -22.647395,133.71683 -0.227607,0.66078 0.207803,0.22118 c 0.06192,0.0756 0.16026,0.1134 0.258525,0.0876 l 0.481204,-0.13044 c 0.13911,-0.0365 0.223715,-0.18507 0.188974,-0.33167 -0.03466,-0.14661 -0.175496,-0.23583 -0.314525,-0.19928 l -0.23795,0.0645 -0.356424,-0.37262" />
      <path
         id="path919"
         style="fill:#f0ccab;fill-opacity:1;fill-rule:nonzero;stroke:none;stroke-width:0.00851086"
         d="m -9.4461069,147.8208 -0.8600671,-0.22283 -0.395016,-0.41547 1.6013228,-1.61826 0.6538997,1.19917 1.6560807,1.74176 -1.0001368,1.05739 -1.6560833,-1.74176" />
      <path
         id="path921"
         style="fill:#ddab7c;fill-opacity:1;fill-rule:nonzero;stroke:none;stroke-width:0.00851086"
         d="m -11.073995,147.84784 -1.651722,1.74627 -1.002729,-1.05466 1.651724,-1.74627 0.211308,-0.90704 0.300876,-0.3181 0.09312,-0.0984 0.687009,-0.72634 0.06912,-0.0731 0.400702,-0.42355 c 0.105036,-0.11114 0.275685,-0.11137 0.3809968,-5.2e-4 0.1017427,0.10701 0.1044378,0.27787 0.010016,0.38952 0.1163328,-0.0917 0.2813565,-0.0831 0.3872488,0.0282 0.112032,0.11783 0.1152461,0.30573 0.011803,0.42901 0.1178064,-0.10853 0.2962504,-0.10501 0.4086142,0.0133 0.1013263,0.10657 0.1149535,0.27025 0.04159,0.39279 0.098514,-0.0911 0.2479496,-0.0883 0.3421387,0.0107 0.098174,0.10335 0.09838,0.27098 4.593e-4,0.3745 l -0.4136132,0.43729 -0.078467,0.0831 -0.7130014,0.75373 -1.1371742,0.68963" />
      <path
         id="path923"
         style="fill:#f0ccab;fill-opacity:1;fill-rule:nonzero;stroke:none;stroke-width:0.00851086"
         d="m -10.294212,144.30805 0.4769237,0.50162 c 0.094855,0.0998 0.095054,0.26189 4.439e-4,0.362 -0.09469,0.10002 -0.2483486,0.10023 -0.3432856,4.7e-4 l -0.476926,-0.50163 c -0.09494,-0.0999 -0.09513,-0.26188 -4.44e-4,-0.362 0.09469,-0.10011 0.248351,-0.10032 0.343288,-4.6e-4" />
      <path
         id="path925"
         style="fill:#f0ccab;fill-opacity:1;fill-rule:nonzero;stroke:none;stroke-width:0.00851086"
         d="m -11.101159,145.1611 0.476923,0.50162 c 0.09494,0.0999 0.09514,0.26189 4.44e-4,0.362 -0.09461,0.10011 -0.248348,0.10032 -0.343285,4.7e-4 l -0.476841,-0.50162 c -0.09494,-0.0999 -0.09514,-0.26189 -4.44e-4,-0.362 0.09461,-0.10003 0.248348,-0.10024 0.343203,-4.7e-4" />
      <path
         id="path927"
         style="fill:#f0ccab;fill-opacity:1;fill-rule:nonzero;stroke:none;stroke-width:0.00851086"
         d="m -11.524424,145.56676 0.375347,0.39479 c 0.08398,0.0883 0.08416,0.23166 3.93e-4,0.32022 -0.08377,0.0886 -0.219689,0.0888 -0.303671,4.2e-4 l -0.375348,-0.39479 c -0.0839,-0.0883 -0.08408,-0.23166 -3.92e-4,-0.32022 0.08376,-0.0885 0.219688,-0.0887 0.303671,-4.2e-4" />
      <path
         id="path929"
         style="fill:#f0ccab;fill-opacity:1;fill-rule:nonzero;stroke:none;stroke-width:0.00851086"
         d="m -10.697644,144.73457 0.614267,0.64608 c 0.094855,0.0999 0.095054,0.26189 4.44e-4,0.362 -0.09469,0.10011 -0.248433,0.10032 -0.343286,4.7e-4 l -0.614267,-0.64608 c -0.09494,-0.0999 -0.09514,-0.26189 -4.44e-4,-0.362 0.09461,-0.10011 0.248348,-0.10032 0.343286,-4.7e-4" />
      <path
         id="path931"
         style="fill:#f0ccab;fill-opacity:1;fill-rule:nonzero;stroke:none;stroke-width:0.00851086"
         d="m -9.739235,147.29349 -0.626024,0.24181 -0.210286,-0.21865 c -0.07185,-0.0651 -0.10795,-0.1687 -0.08371,-0.27239 l 0.122455,-0.50777 c 0.0343,-0.14679 0.174917,-0.23639 0.314033,-0.20013 0.139116,0.0362 0.2240835,0.18445 0.189787,0.33115 l -0.06053,0.25109 0.354273,0.37489" />
      <path
         id="path933"
         style="fill:#e84e53;fill-opacity:1;fill-rule:nonzero;stroke:#e84e53;stroke-width:1;stroke-miterlimit:4;stroke-dasharray:none;stroke-opacity:1"
         d="M 3.5734944,132.84792 1.9882,131.18061 c 2.599465,-2.74827 2.5939886,-7.21428 -0.012208,-9.95536 -2.60611333,-2.74116 -6.8412554,-2.73539 -9.4407209,0.0129 l -1.585211,-1.6674 c 3.471306,-3.67001 9.12683689,-3.67772 12.6071318,-0.0172 3.4802947,3.66054 3.4876078,9.62436 0.016302,13.29438" />
      <path
         id="path935"
         style="fill:#77c7e0;fill-opacity:1;fill-rule:nonzero;stroke:#77c7e0;stroke-width:1;stroke-miterlimit:4;stroke-dasharray:none;stroke-opacity:1"
         d="m -24.258941,135.65034 1.585295,1.6674 c -2.599465,2.74817 -2.593989,7.21418 0.01221,9.95526 2.606112,2.74117 6.841255,2.7354 9.440637,-0.0129 l 1.585295,1.6674 c -3.471307,3.67001 -9.126837,3.67772 -12.607133,0.0172 -3.480294,-3.66054 -3.487607,-9.62437 -0.0163,-13.29438" />
      <path
         id="path937"
         style="fill:#ffdf5e;fill-opacity:1;fill-rule:nonzero;stroke:#ffdf5e;stroke-width:1;stroke-miterlimit:4;stroke-dasharray:none;stroke-opacity:1"
         d="m -9.0139456,148.92395 1.5811165,-1.67171 c 2.6061968,2.74117 6.84133892,2.73539 9.4407209,-0.0129 2.5994651,-2.74818 2.5939887,-7.21419 -0.012207,-9.95527 l 1.5812,-1.67171 c 3.4802947,3.66053 3.4876077,9.62436 0.016302,13.29437 -3.47130598,3.67001 -9.1268369,3.67773 -12.6071319,0.0172" />
      <path
         id="path939"
         style="fill:#5fd35f;fill-opacity:1;fill-rule:nonzero;stroke:#5fd35f;stroke-width:1;stroke-miterlimit:4;stroke-dasharray:none;stroke-opacity:1"
         d="m -11.6715,119.57431 -1.581201,1.67171 c -2.606112,-2.74117 -6.841256,-2.73539 -9.440637,0.0129 -2.599465,2.74818 -2.593989,7.21419 0.01221,9.95536 l -1.581201,1.67162 c -3.480294,-3.66053 -3.487607,-9.62436 -0.0163,-13.29437 3.471307,-3.67002 9.126837,-3.67773 12.607133,-0.0172" />
      <g
         id="g1502"
         transform="matrix(1.4245719,0,0,1.367521,-0.92284743,-44.144148)">
        <path
           d="m 4.1062211,118.97308 c -1.412184,-1.48523 -2.8440394,-2.38583 -4.61569819,-0.51267 -1.45770351,1.54115 0.34087313,3.16796 1.22476437,4.09772 0.88389092,0.92966 2.43133632,2.82207 3.88903982,1.28092 1.7717418,-1.87307 0.9139952,-3.38065 -0.498106,-4.86597"
           style="fill:#d93d44;fill-opacity:1;fill-rule:nonzero;stroke:none;stroke-width:0.00851086"
           id="path869" />
        <path
           d="m 0.98687809,122.959 c 0.94900941,0.70654 2.16499491,0.61914 3.15937441,-0.0652 0.013152,0.046 0.096508,0.1647 0.6272318,-0.13623 0.6137116,-0.34789 0.7349993,-0.58989 0.4219599,-0.93031 0.7996267,-1.14565 0.9216249,-2.49803 -0.255209,-3.73581 -1.1682863,-1.22879 -2.4565791,-1.10311 -3.542842,-0.25902 -0.3239665,-0.32993 -0.55321997,-0.20158 -0.8817056,0.44684 -0.28888251,0.57005 -0.16719895,0.6509 -0.1253305,0.66247 -0.64077808,1.05244 -0.71030517,2.34383 -0.0554252,3.32931 -0.0582772,0.19227 -0.16013921,0.59531 -0.0353275,0.72658 0.12439714,0.13093 0.50443437,0.0235 0.68727364,-0.0386"
           style="fill:#a38d60;fill-opacity:1;fill-rule:nonzero;stroke:none;stroke-width:0.00851086"
           id="path941" />
        <path
           d="m -0.07723379,120.10386 c 0.05745726,0.0853 0.18068204,0.1388 0.40686735,0.14426 0.31205096,0.008 0.37111026,-0.0878 0.50950842,0.24131 0.14837268,0.3528 0.0561533,0.64413 0.67465292,1.29466 0.6007406,0.63185 0.8502754,0.4839 1.1478171,0.62211 0.3123855,0.14509 0.2221233,0.20761 0.2300689,0.53665 0.0069,0.28578 0.078748,0.41565 0.1896911,0.45648 0.1019159,-0.0213 0.2029128,-0.0485 0.3023282,-0.0812 0.8266403,-0.27136 1.605772,-0.89575 2.0673758,-1.66836 0.7661415,-1.28247 0.6796885,-2.64199 -0.349927,-3.72493 -1.7569109,-1.84799 -4.90352759,-0.30034 -5.17495021,2.13947 -0.0014644,0.0128 -0.0021994,0.0265 -0.0034333,0.0395"
           style="fill:#432f1e;fill-opacity:1;fill-rule:nonzero;stroke:none;stroke-width:0.00851086"
           id="path943" />
      </g>
      <g
         id="g1514"
         transform="matrix(1.4627215,0,0,1.4627215,11.384414,-69.73713)">
        <path
           d="m -24.763441,149.49533 c -1.412184,-1.48523 -2.269849,-2.9928 -0.498189,-4.86588 1.457703,-1.54115 3.005147,0.35126 3.889039,1.28093 0.883892,0.92967 2.682468,2.55657 1.224764,4.09771 -1.771657,1.87308 -3.203514,0.97256 -4.615614,-0.51276"
           style="fill:#62b7ce;fill-opacity:1;fill-rule:nonzero;stroke:none;stroke-width:0.00851086"
           id="path871" />
        <path
           d="m -21.370622,145.3533 c -0.94901,-0.70654 -2.164996,-0.61914 -3.159292,0.0652 -0.01324,-0.046 -0.09651,-0.16479 -0.627314,0.13614 -0.613628,0.34798 -0.735,0.58998 -0.42196,0.9304 -0.799627,1.14565 -0.921624,2.49795 0.255292,3.73581 1.168202,1.22871 2.456496,1.10311 3.542759,0.25894 0.323965,0.33001 0.553219,0.20166 0.881788,-0.44676 0.288883,-0.57005 0.167116,-0.65099 0.125331,-0.66247 0.640778,-1.05244 0.710222,-2.34383 0.05534,-3.32939 0.05836,-0.19227 0.160223,-0.59531 0.03541,-0.72659 -0.124481,-0.13084 -0.504518,-0.0234 -0.687357,0.0387"
           style="fill:#f0ccab;fill-opacity:1;fill-rule:nonzero;stroke:none;stroke-width:0.00851086"
           id="path945" />
        <path
           d="m -21.133722,146.7967 c 0.06673,0.008 0.402888,0.009 0.469852,0.006 -0.06996,-0.0746 -0.143482,-0.14777 -0.231478,-0.19834 -0.07241,-0.0418 -0.151918,-0.0675 -0.230273,-0.0937 -0.151482,-0.0507 -0.304198,-0.0922 -0.460216,-0.12383 -0.04485,-0.009 -0.09376,-0.0222 -0.139923,-0.0195 0.14478,-0.008 0.453587,-0.0101 0.602055,0.0157 -0.04219,-0.007 -0.07847,-0.0535 -0.110906,-0.0792 -0.04662,-0.0371 -0.09771,-0.0676 -0.150293,-0.0945 -0.133106,-0.0681 -0.278114,-0.10974 -0.424177,-0.13279 -0.09666,-0.0153 -0.214628,-0.0427 -0.311394,-0.0132 0.10645,-0.10851 0.268677,-0.0833 0.381546,-0.16045 -0.02487,-0.008 -0.04809,-0.0203 -0.0728,-0.0284 -0.03291,-0.0107 -0.06575,-0.0215 -0.09875,-0.0321 -0.193601,-0.0622 -0.394888,-0.1081 -0.598078,-0.0819 -0.06754,0.009 -0.189998,0.0375 -0.267087,0.0276 -0.03864,-0.0161 -0.07861,-0.0329 -0.12256,-0.0533 -0.312387,-0.14509 -0.430163,-0.8241 -0.541022,-0.86494 -0.101999,0.0214 -0.202912,0.0486 -0.302329,0.0812 -0.826639,0.27136 -1.605855,0.89574 -2.067376,1.66836 -0.766224,1.28246 -0.679771,2.64199 0.349846,3.72502 1.756993,1.84798 4.903608,0.30025 5.175032,-2.13956 0.0014,-0.0127 0.0023,-0.0265 0.0034,-0.0394 -0.05563,-0.0826 -0.607128,-0.23078 -0.706162,-0.49493 -0.02902,-0.0775 -0.05207,-0.15375 -0.02192,-0.23027 0.05875,-0.14927 0.457478,-0.21815 0.592011,-0.26955 -0.239378,-0.21983 -0.710982,-0.30344 -0.913374,-0.37098 0.04618,0.0154 0.141961,-0.009 0.196338,-0.003"
           style="fill:#f5f5f5;fill-opacity:1;fill-rule:nonzero;stroke:#e6e6e6;stroke-width:0.24125262;stroke-miterlimit:4;stroke-dasharray:none;stroke-opacity:1"
           id="path947" />
      </g>
      <g
         id="g1497"
         transform="matrix(1.3117441,0,0,1.2861008,7.6531431,-34.342554)">
        <path
           d="m -24.80082,119.0125 c 1.408452,-1.48908 2.838096,-2.39358 4.614341,-0.52526 1.461478,1.53717 -0.333102,3.16888 -1.21471,4.10104 -0.881609,0.93208 -2.424407,2.8287 -3.885885,1.29153 -1.776248,-1.86823 -0.922283,-3.37814 0.486254,-4.86731"
           style="fill:#c6e9af;fill-opacity:1;fill-rule:nonzero;stroke:none;stroke-width:0.00851086"
           id="path875" />
        <path
           d="m -20.843329,122.51848 c 0.670015,-1.00083 0.587137,-2.28302 -0.06185,-3.3316 0.04358,-0.0139 0.156187,-0.10177 -0.129191,-0.66143 -0.329908,-0.64716 -0.559391,-0.77506 -0.882219,-0.44496 -1.086426,-0.84321 -2.368895,-0.97186 -3.542774,0.26912 -1.165185,1.23198 -1.045996,2.5905 -0.245549,3.73597 -0.312866,0.34163 -0.191151,0.58338 0.42366,0.92977 0.540667,0.30463 0.617338,0.17632 0.628307,0.13217 0.998035,0.6757 2.222589,0.74902 3.157206,0.0584 0.182326,0.0615 0.564534,0.16887 0.689024,0.0373 0.124075,-0.13118 0.0223,-0.53194 -0.03661,-0.72474"
           style="fill:#f0ccab;fill-opacity:1;fill-rule:nonzero;stroke:none;stroke-width:0.00851086"
           id="path949" />
        <path
           d="m -21.234757,122.46238 c 0.194393,-0.50875 0.278475,-1.01594 0.278475,-1.01594 l 0.632238,-0.37982 c 0,0 0.181769,-0.39258 0.01517,-1.01986 -0.24205,-0.91158 -0.880678,-1.75576 -1.640391,-2.26049 -1.260964,-0.83765 -2.59778,-0.74318 -3.662562,0.38255 -1.817019,1.92103 -0.298224,5.38882 2.103627,5.65823 0.970736,0.10888 1.331105,-0.0878 1.331105,-0.0878 0,0 0.603135,-0.38904 0.942349,-1.27685"
           style="fill:#db9124;fill-opacity:1;fill-rule:nonzero;stroke:none;stroke-width:0.00851086"
           id="path951" />
        <path
           d="m -24.865445,118.21981 c 0.430229,-1.21621 -1.000345,-1.94962 -1.873243,-1.28193 -0.61497,0.47042 -0.664743,1.44786 -0.239785,2.08301 0.163739,0.24466 0.502337,0.47546 0.790031,0.49062 0.366434,0.0192 0.659435,-0.36709 0.896913,-0.61536 0.180529,-0.18877 0.336965,-0.42443 0.426084,-0.67634"
           style="fill:#db9124;fill-opacity:1;fill-rule:nonzero;stroke:none;stroke-width:0.00851086"
           id="path953" />
        <path
           d="m -24.85404,117.65241 c 0.190749,0.30501 0.0956,0.84212 -0.249961,1.28657 -0.345561,0.44445 -0.826429,0.64804 -1.147423,0.51065 0.310647,0.21545 0.839761,0.0214 1.210809,-0.45586 0.371046,-0.47725 0.447822,-1.06231 0.186575,-1.34136"
           style="fill:#f0a5c9;fill-opacity:1;fill-rule:nonzero;stroke:none;stroke-width:0.00851086"
           id="path955" />
      </g>
      <g
         id="g1509"
         transform="matrix(1.423626,0,0,1.423626,-0.39758684,-62.715517)">
        <path
           d="m 4.1436003,149.45592 c 1.4084539,-1.48908 2.2625003,-2.99899 0.4861707,-4.86723 -1.4614782,-1.53716 -3.0042774,0.35946 -3.88588534,1.29153 -0.8816082,0.93208 -2.67618896,2.56388 -1.21471078,4.10104 1.77624662,1.86824 3.20588862,0.96382 4.61442542,-0.52534"
           style="fill:#ddd237;fill-opacity:1;fill-rule:nonzero;stroke:none;stroke-width:0.00851086"
           id="path873" />
        <path
           d="m -0.44855877,145.42983 c -0.67001493,1.00074 -0.58705493,2.28301 0.0619352,3.33151 -0.0436605,0.014 -0.15626904,0.10186 0.12910883,0.66151 0.32999139,0.64717 0.55947637,0.77507 0.88230206,0.44496 1.08634278,0.84322 2.36881418,0.97187 3.54269138,-0.26921 1.165186,-1.23188 1.0460797,-2.5904 0.2455498,-3.73588 0.3128661,-0.34163 0.1912338,-0.58338 -0.4236608,-0.92986 -0.5405828,-0.30463 -0.6173377,-0.17622 -0.6283068,-0.13216 -0.9979533,-0.67571 -2.2225897,-0.74894 -3.15720535,-0.0584 -0.18232792,-0.0615 -0.56453449,-0.16887 -0.68902422,-0.0373 -0.12407563,0.13127 -0.0222225,0.53202 0.0366099,0.72483"
           style="fill:#f0ccab;fill-opacity:1;fill-rule:nonzero;stroke:none;stroke-width:0.00851086"
           id="path957" />
        <path
           d="m -0.05713229,145.48593 c -0.1943919,0.50874 -0.27847307,1.01585 -0.27847307,1.01585 l -0.63223745,0.37982 c 0,0 -0.18177079,0.39257 -0.0151595,1.01995 0.24204878,0.91149 0.88075987,1.75575 1.64039059,2.2604 1.26104612,0.83773 2.59777872,0.74318 3.66264502,-0.38255 1.817018,-1.92103 0.2981405,-5.38873 -2.1037103,-5.65823 -0.9706541,-0.10888 -1.33102214,0.0878 -1.33102214,0.0878 0,0 -0.60321821,0.38913 -0.94243318,1.27694"
           style="fill:#89624c;fill-opacity:1;fill-rule:nonzero;stroke:none;stroke-width:0.00851086"
           id="path959" />
        <path
           d="m 3.7045711,149.24038 c 0.011746,0.0495 0.1533551,-0.045 0.1777881,0.009 0.1389531,0.30842 0.2356979,0.80138 0.509855,1.0646 0.2268714,0.29466 0.5111101,0.53382 0.8372458,0.60487 0.8028212,0.17501 1.1108023,-0.63558 1.4118995,-1.17996 0.1367798,-0.24734 0.3097267,-0.46861 0.5149603,-0.65207 0.1772512,-0.15843 0.4203237,-0.23699 0.5875384,-0.40187 -0.1307918,0.12891 -0.4690429,0.0455 -0.6532971,0.0352 -0.041608,-0.002 -0.083382,-0.004 -0.1252382,-0.006 0.1632477,-0.15579 0.3822621,-0.25318 0.5287525,-0.42154 -0.1210825,0.13904 -0.4642727,0.0831 -0.6488399,0.0878 -0.2492944,0.006 -0.5047998,0.0163 -0.725565,0.10517 -0.1841504,0.0743 -0.3604777,0.37779 -0.5829524,0.55961 -0.077275,-0.0254 -0.1910956,-0.11493 -0.2754789,-0.19216 -0.236721,-0.21651 -0.785793,-0.34721 -1.075864,-0.13802 -0.08173,-0.14409 0.1364317,-0.53121 0.022941,-0.41997 -0.2607573,0.25573 -0.605549,0.51577 -0.5037441,0.94484"
           style="fill:#89624c;fill-opacity:1;fill-rule:nonzero;stroke:none;stroke-width:0.00851086"
           id="path961" />
        <path
           d="m 4.1869663,149.94537 c 0.1121309,-0.004 0.3306709,-0.21816 0.5244836,-0.52326 0.193813,-0.30511 0.2983773,-0.5997 0.259288,-0.71055 0.070631,0.0814 -0.032417,0.39613 -0.240541,0.72372 -0.2081233,0.32767 -0.4448888,0.54797 -0.5432306,0.51009"
           style="fill:#52afe6;fill-opacity:1;fill-rule:nonzero;stroke:none;stroke-width:0.00851086"
           id="path963" />
      </g>
    </g>
    <g
       transform="matrix(0.73140422,0,0,0.73140422,45.79748,44.822573)"
       id="g1587">
      <g
         id="text1438"
         style="font-style:normal;font-weight:normal;font-size:10.58333302px;line-height:1.25;font-family:sans-serif;letter-spacing:0px;word-spacing:0px;fill:#24221c;fill-opacity:1;stroke:none;stroke-width:0.26458332"
         aria-label="Participaê!">
        <path
           id="path880"
           style="font-style:normal;font-variant:normal;font-weight:normal;font-stretch:normal;font-size:26.45833397px;font-family:'century gothic';-inkscape-font-specification:'century gothic';fill:#24221c;stroke-width:0.26458332"
           d="m 11.148322,119.16082 h 3.785299 q 3.255615,0 4.392496,0.28422 1.627808,0.40049 2.661337,1.65364 1.033528,1.24024 1.033528,3.12643 0,1.89911 -1.00769,3.13934 -1.00769,1.22732 -2.777608,1.65365 -1.291911,0.31006 -4.831747,0.31006 h -1.356506 v 8.83667 h -1.899109 z m 1.899109,1.84743 v 6.45955 l 3.216858,0.0388 q 1.950785,0 2.855123,-0.34881 0.904337,-0.36174 1.421102,-1.14981 0.516764,-0.80098 0.516764,-1.78283 0,-0.95602 -0.516764,-1.74408 -0.516765,-0.80099 -1.369426,-1.13688 -0.839742,-0.3359 -2.764689,-0.3359 z" />
        <path
           id="path882"
           style="font-style:normal;font-variant:normal;font-weight:normal;font-stretch:normal;font-size:26.45833397px;font-family:'century gothic';-inkscape-font-specification:'century gothic';fill:#24221c;stroke-width:0.26458332"
           d="m 40.526374,124.10884 v 14.05599 h -1.782837 v -2.41588 q -1.136882,1.38235 -2.557983,2.07998 -1.408183,0.69763 -3.087667,0.69763 -2.984314,0 -5.103048,-2.15749 -2.105815,-2.17041 -2.105815,-5.271 0,-3.03599 2.131653,-5.19348 2.131653,-2.15749 5.128886,-2.15749 1.731161,0 3.126424,0.73639 1.408183,0.73639 2.46755,2.20917 v -2.58382 z m -7.234701,1.38234 q -1.511535,0 -2.790527,0.74931 -1.278992,0.73639 -2.041219,2.07997 -0.749309,1.34359 -0.749309,2.84221 0,1.4857 0.762228,2.8422 0.762227,1.35651 2.041219,2.11874 1.291911,0.7493 2.764689,0.7493 1.485698,0 2.816366,-0.7493 1.330668,-0.74931 2.041219,-2.0283 0.72347,-1.279 0.72347,-2.88096 0,-2.44172 -1.614889,-4.08244 -1.601969,-1.64073 -3.953247,-1.64073 z" />
        <path
           id="path884"
           style="font-style:normal;font-variant:normal;font-weight:normal;font-stretch:normal;font-size:26.45833397px;font-family:'century gothic';-inkscape-font-specification:'century gothic';fill:#24221c;stroke-width:0.26458332"
           d="m 43.924102,124.10884 h 1.847432 v 2.05413 q 0.826823,-1.21439 1.74408,-1.80867 0.917256,-0.6072 1.912028,-0.6072 0.749308,0 1.601969,0.47801 l -0.943095,1.52445 q -0.568441,-0.24546 -0.956014,-0.24546 -0.904337,0 -1.744079,0.74931 -0.839742,0.73639 -1.278992,2.2996 -0.335897,1.20148 -0.335897,4.85758 v 4.75424 h -1.847432 z" />
        <path
           id="path886"
           style="font-style:normal;font-variant:normal;font-weight:normal;font-stretch:normal;font-size:26.45833397px;font-family:'century gothic';-inkscape-font-specification:'century gothic';fill:#24221c;stroke-width:0.26458332"
           d="m 54.143114,118.88952 h 1.821594 v 5.21932 h 2.868042 v 1.55029 h -2.868042 v 12.5057 h -1.821594 v -12.5057 h -2.46755 v -1.55029 h 2.46755 z" />
        <path
           id="path888"
           style="font-style:normal;font-variant:normal;font-weight:normal;font-stretch:normal;font-size:26.45833397px;font-family:'century gothic';-inkscape-font-specification:'century gothic';fill:#24221c;stroke-width:0.26458332"
           d="m 62.191718,118.32107 q 0.620117,0 1.059367,0.43925 0.439249,0.43925 0.439249,1.05937 0,0.6072 -0.439249,1.04645 -0.43925,0.43925 -1.059367,0.43925 -0.607198,0 -1.046448,-0.43925 -0.43925,-0.43925 -0.43925,-1.04645 0,-0.62012 0.43925,-1.05937 0.43925,-0.43925 1.046448,-0.43925 z m -0.904338,5.78777 h 1.821595 v 14.05599 H 61.28738 Z" />
        <path
           id="path890"
           style="font-style:normal;font-variant:normal;font-weight:normal;font-stretch:normal;font-size:26.45833397px;font-family:'century gothic';-inkscape-font-specification:'century gothic';fill:#24221c;stroke-width:0.26458332"
           d="m 80.523934,127.02855 -1.434021,0.89142 q -1.860352,-2.46755 -5.07721,-2.46755 -2.570902,0 -4.276225,1.65365 -1.692403,1.65364 -1.692403,4.01784 0,1.53738 0.775147,2.89388 0.788065,1.35651 2.144572,2.10582 1.369425,0.7493 3.061828,0.7493 3.100586,0 5.064291,-2.46755 l 1.434021,0.9431 q -1.007691,1.51154 -2.713013,2.35128 -1.692403,0.82682 -3.862813,0.82682 -3.33313,0 -5.529379,-2.11873 -2.196248,-2.11874 -2.196248,-5.15473 0,-2.04122 1.020609,-3.7853 1.033529,-1.757 2.829285,-2.73885 1.795756,-0.98185 4.017843,-0.98185 1.395264,0 2.687174,0.42633 1.30483,0.42633 2.209168,1.11104 0.904337,0.68472 1.537374,1.74408 z" />
        <path
           id="path892"
           style="font-style:normal;font-variant:normal;font-weight:normal;font-stretch:normal;font-size:26.45833397px;font-family:'century gothic';-inkscape-font-specification:'century gothic';fill:#24221c;stroke-width:0.26458332"
           d="m 84.619292,118.32107 q 0.620117,0 1.059367,0.43925 0.43925,0.43925 0.43925,1.05937 0,0.6072 -0.43925,1.04645 -0.43925,0.43925 -1.059367,0.43925 -0.607198,0 -1.046448,-0.43925 -0.439249,-0.43925 -0.439249,-1.04645 0,-0.62012 0.439249,-1.05937 0.43925,-0.43925 1.046448,-0.43925 z m -0.904338,5.78777 h 1.821595 v 14.05599 h -1.821595 z" />
        <path
           id="path894"
           style="font-style:normal;font-variant:normal;font-weight:normal;font-stretch:normal;font-size:26.45833397px;font-family:'century gothic';-inkscape-font-specification:'century gothic';fill:#24221c;stroke-width:0.26458332"
           d="m 89.334764,124.10884 h 1.795756 v 2.58382 q 1.072286,-1.47278 2.46755,-2.20917 1.395263,-0.73639 3.113505,-0.73639 2.997233,0 5.128885,2.15749 2.13165,2.15749 2.13165,5.19348 0,3.10059 -2.11873,5.271 -2.105815,2.15749 -5.090129,2.15749 -1.679484,0 -3.087667,-0.69763 -1.408183,-0.69763 -2.545064,-2.07998 v 7.55768 h -1.795756 z m 7.234701,1.38234 q -2.351278,0 -3.966167,1.64073 -1.601969,1.64072 -1.601969,4.08244 0,1.60196 0.710551,2.88096 0.72347,1.27899 2.054138,2.0283 1.343587,0.7493 2.829285,0.7493 1.459859,0 2.738851,-0.7493 1.291906,-0.76223 2.054136,-2.11874 0.76223,-1.3565 0.76223,-2.8422 0,-1.49862 -0.76223,-2.84221 -0.74931,-1.34358 -2.028298,-2.07997 -1.278992,-0.74931 -2.790527,-0.74931 z" />
        <path
           id="path896"
           style="fill:#24221c"
           d="m 121.34832,124.10884 v 14.05599 h -1.78284 v -2.41588 q -1.13688,1.38235 -2.55798,2.07998 -1.40818,0.69763 -3.08767,0.69763 -2.98431,0 -5.10305,-2.15749 -2.10581,-2.17041 -2.10581,-5.271 0,-3.03599 2.13165,-5.19348 2.13166,-2.15749 5.12889,-2.15749 1.73116,0 3.12642,0.73639 1.40819,0.73639 2.46755,2.20917 v -2.58382 z m -7.2347,1.38234 q -1.51154,0 -2.79053,0.74931 -1.27899,0.73639 -2.04122,2.07997 -0.74931,1.34359 -0.74931,2.84221 0,1.4857 0.76223,2.8422 0.76223,1.35651 2.04122,2.11874 1.29191,0.7493 2.76469,0.7493 1.4857,0 2.81636,-0.7493 1.33067,-0.74931 2.04122,-2.0283 0.72347,-1.279 0.72347,-2.88096 0,-2.44172 -1.61488,-4.08244 -1.60197,-1.64073 -3.95325,-1.64073 z" />
        <path
           id="path898"
           style="fill:#24221c"
           d="m 137.26466,133.50103 1.52446,0.80098 q -0.74931,1.47278 -1.73116,2.37712 -0.98186,0.90434 -2.20917,1.38234 -1.22732,0.46509 -2.77761,0.46509 -3.43648,0 -5.37435,-2.24792 -1.93786,-2.26085 -1.93786,-5.10305 0,-2.67426 1.64072,-4.76715 2.07998,-2.66134 5.56814,-2.66134 3.59151,0 5.73608,2.72593 1.52446,1.92495 1.5503,4.80591 h -12.63489 q 0.0517,2.45463 1.56321,4.03076 1.51154,1.56321 3.73362,1.56321 1.07229,0 2.07998,-0.37465 1.02061,-0.37465 1.73116,-0.99477 0.71055,-0.62012 1.53737,-2.00246 z m 0,-3.7853 q -0.36173,-1.44694 -1.05936,-2.31252 -0.68472,-0.86558 -1.8216,-1.39527 -1.13688,-0.52968 -2.39003,-0.52968 -2.06706,0 -3.55276,1.33067 -1.0852,0.96893 -1.64073,2.9068 z m -6.09782,-11.47217 h 1.79576 l 3.74654,3.32021 h -2.32544 l -2.27376,-1.9637 -2.37712,1.9637 h -2.40295 z" />
        <path
           id="path900"
           style="font-style:normal;font-variant:normal;font-weight:normal;font-stretch:normal;font-size:26.45833397px;font-family:'century gothic';-inkscape-font-specification:'century gothic';fill:#24221c;stroke-width:0.26458332"
           d="m 145.44245,118.68281 v 14.72778 h -1.87327 v -14.72778 z m -0.91726,16.63981 q 0.65888,0 1.12397,0.46509 0.46508,0.46509 0.46508,1.13688 0,0.65888 -0.46508,1.13688 -0.46509,0.46509 -1.12397,0.46509 -0.65887,0 -1.12396,-0.46509 -0.46509,-0.478 -0.46509,-1.13688 0,-0.67179 0.46509,-1.13688 0.46509,-0.46509 1.12396,-0.46509 z" />
      </g>
      <g
         id="text1442"
         style="font-style:normal;font-variant:normal;font-weight:normal;font-stretch:normal;font-size:10.58333302px;line-height:1.25;font-family:'century gothic';-inkscape-font-specification:'century gothic';letter-spacing:0px;word-spacing:0px;fill:#918a6f;fill-opacity:1;stroke:none;stroke-width:0.26458332"
         aria-label="Inteligência contra a corrupção">
        <path
           id="path904"
           style="font-style:normal;font-variant:normal;font-weight:normal;font-stretch:normal;font-size:8.46666622px;font-family:'Century Gothic';-inkscape-font-specification:'Century Gothic';fill:#918a6f;stroke-width:0.26458332"
           d="m 13.049758,142.41872 h 0.607715 V 148.5 h -0.607715 z" />
        <path
           id="path906"
           style="font-style:normal;font-variant:normal;font-weight:normal;font-stretch:normal;font-size:8.46666622px;font-family:'Century Gothic';-inkscape-font-specification:'Century Gothic';fill:#918a6f;stroke-width:0.26458332"
           d="m 14.959719,144.00208 h 0.578776 v 0.80616 q 0.347266,-0.46302 0.768946,-0.6904 0.421679,-0.23151 0.917773,-0.23151 0.504362,0 0.892969,0.25631 0.39274,0.25632 0.578776,0.6904 0.186035,0.43408 0.186035,1.35186 V 148.5 h -0.574642 v -2.14561 q 0,-0.77721 -0.06615,-1.03766 -0.103353,-0.44648 -0.388607,-0.66972 -0.285254,-0.22738 -0.74414,-0.22738 -0.525033,0 -0.942578,0.34726 -0.413412,0.34727 -0.545703,0.8599 -0.08268,0.33486 -0.08268,1.2237 V 148.5 h -0.578776 z" />
        <path
           id="path908"
           style="font-style:normal;font-variant:normal;font-weight:normal;font-stretch:normal;font-size:8.46666622px;font-family:'Century Gothic';-inkscape-font-specification:'Century Gothic';fill:#918a6f;stroke-width:0.26458332"
           d="m 20.623456,142.3319 h 0.58291 v 1.67018 h 0.917773 v 0.4961 H 21.206366 V 148.5 h -0.58291 v -4.00182 H 19.83384 v -0.4961 h 0.789616 z" />
        <path
           id="path910"
           style="font-style:normal;font-variant:normal;font-weight:normal;font-stretch:normal;font-size:8.46666622px;font-family:'Century Gothic';-inkscape-font-specification:'Century Gothic';fill:#918a6f;stroke-width:0.26458332"
           d="m 26.783286,147.00758 0.487826,0.25632 q -0.239779,0.47129 -0.553971,0.76068 -0.314193,0.28938 -0.706934,0.44235 -0.392741,0.14883 -0.888835,0.14883 -1.099674,0 -1.719791,-0.71934 -0.620117,-0.72347 -0.620117,-1.63298 0,-0.85576 0.525032,-1.52548 0.665593,-0.85163 1.781803,-0.85163 1.149284,0 1.835547,0.8723 0.487826,0.61598 0.496094,1.53789 h -4.043164 q 0.01654,0.78548 0.500228,1.28984 0.483691,0.50023 1.194759,0.50023 0.343132,0 0.665592,-0.11989 0.326595,-0.11989 0.553972,-0.31833 0.227376,-0.19844 0.491959,-0.64079 z m 0,-1.21129 q -0.115755,-0.46302 -0.338997,-0.74001 -0.219108,-0.27698 -0.58291,-0.44648 -0.363802,-0.1695 -0.764811,-0.1695 -0.661459,0 -1.136882,0.42581 -0.347265,0.31006 -0.525032,0.93018 z" />
        <path
           id="path912"
           style="font-style:normal;font-variant:normal;font-weight:normal;font-stretch:normal;font-size:8.46666622px;font-family:'Century Gothic';-inkscape-font-specification:'Century Gothic';fill:#918a6f;stroke-width:0.26458332"
           d="m 28.416262,142.26576 h 0.578776 V 148.5 h -0.578776 z" />
        <path
           id="path914"
           style="font-style:normal;font-variant:normal;font-weight:normal;font-stretch:normal;font-size:8.46666622px;font-family:'Century Gothic';-inkscape-font-specification:'Century Gothic';fill:#918a6f;stroke-width:0.26458332"
           d="m 30.408904,142.15 q 0.198438,0 0.338998,0.14056 0.14056,0.14056 0.14056,0.339 0,0.1943 -0.14056,0.33486 -0.14056,0.14056 -0.338998,0.14056 -0.194303,0 -0.334863,-0.14056 -0.14056,-0.14056 -0.14056,-0.33486 0,-0.19844 0.14056,-0.339 0.14056,-0.14056 0.334863,-0.14056 z m -0.289388,1.85208 h 0.58291 V 148.5 h -0.58291 z" />
        <path
           id="path916"
           style="font-style:normal;font-variant:normal;font-weight:normal;font-stretch:normal;font-size:8.46666622px;font-family:'Century Gothic';-inkscape-font-specification:'Century Gothic';fill:#918a6f;stroke-width:0.26458332"
           d="m 35.783255,144.00208 h 0.58291 v 3.58428 q 0,0.94671 -0.165365,1.38493 -0.227376,0.62012 -0.789616,0.95498 -0.562239,0.33486 -1.351855,0.33486 -0.578776,0 -1.041797,-0.16536 -0.458887,-0.16123 -0.748275,-0.43822 -0.289388,-0.27285 -0.5333,-0.80202 h 0.628385 q 0.256315,0.44649 0.661458,0.66146 0.405143,0.21498 1.00459,0.21498 0.591178,0 0.996322,-0.22325 0.409277,-0.2191 0.58291,-0.55397 0.173633,-0.33486 0.173633,-1.079 v -0.23151 q -0.326596,0.41341 -0.797885,0.63665 -0.471289,0.21911 -1.000455,0.21911 -0.620117,0 -1.16582,-0.30592 -0.545704,-0.31006 -0.84336,-0.83096 -0.297656,-0.5209 -0.297656,-1.14515 0,-0.62425 0.310059,-1.16169 0.310058,-0.54157 0.855761,-0.85576 0.549837,-0.31419 1.157552,-0.31419 0.504362,0 0.938444,0.21084 0.438216,0.2067 0.84336,0.68626 z m -1.70739,0.44235 q -0.491959,0 -0.913639,0.23978 -0.42168,0.23565 -0.661458,0.65733 -0.239779,0.41754 -0.239779,0.90537 0,0.74 0.496094,1.2237 0.496094,0.48369 1.285709,0.48369 0.797884,0 1.281576,-0.47956 0.487825,-0.47956 0.487825,-1.26091 0,-0.50849 -0.223242,-0.90537 -0.223242,-0.40101 -0.632519,-0.63252 -0.409278,-0.23151 -0.880567,-0.23151 z" />
        <path
           id="path918"
           style="font-style:normal;font-variant:normal;font-weight:normal;font-stretch:normal;font-size:8.46666622px;font-family:'Century Gothic';-inkscape-font-specification:'Century Gothic';fill:#918a6f;stroke-width:0.26458332"
           d="m 41.401514,147.00758 0.487826,0.25632 q -0.239779,0.47129 -0.553972,0.76068 -0.314192,0.28938 -0.706933,0.44235 -0.392741,0.14883 -0.888835,0.14883 -1.099674,0 -1.719791,-0.71934 -0.620117,-0.72347 -0.620117,-1.63298 0,-0.85576 0.525032,-1.52548 0.665593,-0.85163 1.781803,-0.85163 1.149284,0 1.835547,0.8723 0.487826,0.61598 0.496094,1.53789 h -4.043164 q 0.01654,0.78548 0.500228,1.28984 0.483691,0.50023 1.194759,0.50023 0.343131,0 0.665592,-0.11989 0.326595,-0.11989 0.553972,-0.31833 0.227376,-0.19844 0.491959,-0.64079 z m 0,-1.21129 q -0.115755,-0.46302 -0.338997,-0.74001 -0.219108,-0.27698 -0.58291,-0.44648 -0.363802,-0.1695 -0.764811,-0.1695 -0.661459,0 -1.136882,0.42581 -0.347265,0.31006 -0.525032,0.93018 z m -1.951302,-3.67109 h 0.574642 l 1.198893,1.06246 h -0.74414 l -0.727604,-0.62838 -0.760677,0.62838 H 38.22238 Z" />
        <path
           id="path920"
           style="font-style:normal;font-variant:normal;font-weight:normal;font-stretch:normal;font-size:8.46666622px;font-family:'Century Gothic';-inkscape-font-specification:'Century Gothic';fill:#918a6f;stroke-width:0.26458332"
           d="m 43.121307,144.00208 h 0.578776 v 0.80616 q 0.347266,-0.46302 0.768945,-0.6904 0.42168,-0.23151 0.917774,-0.23151 0.504362,0 0.892968,0.25631 0.392741,0.25632 0.578776,0.6904 0.186035,0.43408 0.186035,1.35186 V 148.5 H 46.46994 v -2.14561 q 0,-0.77721 -0.06615,-1.03766 -0.103353,-0.44648 -0.388607,-0.66972 -0.285254,-0.22738 -0.744141,-0.22738 -0.525032,0 -0.942578,0.34726 -0.413411,0.34727 -0.545703,0.8599 -0.08268,0.33486 -0.08268,1.2237 V 148.5 h -0.578776 z" />
        <path
           id="path922"
           style="font-style:normal;font-variant:normal;font-weight:normal;font-stretch:normal;font-size:8.46666622px;font-family:'Century Gothic';-inkscape-font-specification:'Century Gothic';fill:#918a6f;stroke-width:0.26458332"
           d="m 52.646304,144.93639 -0.458887,0.28526 q -0.595312,-0.78962 -1.624707,-0.78962 -0.822688,0 -1.368391,0.52917 -0.541569,0.52916 -0.541569,1.28571 0,0.49196 0.248046,0.92604 0.252181,0.43408 0.686263,0.67386 0.438217,0.23978 0.979786,0.23978 0.992187,0 1.620572,-0.78962 l 0.458887,0.30179 q -0.322461,0.48369 -0.868164,0.75241 -0.541569,0.26459 -1.2361,0.26459 -1.066602,0 -1.769401,-0.678 -0.7028,-0.67799 -0.7028,-1.64951 0,-0.65319 0.326595,-1.2113 0.33073,-0.56224 0.905372,-0.87643 0.574641,-0.31419 1.285709,-0.31419 0.446484,0 0.859896,0.13642 0.417545,0.13643 0.706933,0.35554 0.289388,0.21911 0.49196,0.5581 z" />
        <path
           id="path924"
           style="font-style:normal;font-variant:normal;font-weight:normal;font-stretch:normal;font-size:8.46666622px;font-family:'Century Gothic';-inkscape-font-specification:'Century Gothic';fill:#918a6f;stroke-width:0.26458332"
           d="m 53.956819,142.15 q 0.198437,0 0.338997,0.14056 0.14056,0.14056 0.14056,0.339 0,0.1943 -0.14056,0.33486 -0.14056,0.14056 -0.338997,0.14056 -0.194304,0 -0.334863,-0.14056 -0.14056,-0.14056 -0.14056,-0.33486 0,-0.19844 0.14056,-0.339 0.140559,-0.14056 0.334863,-0.14056 z m -0.289388,1.85208 h 0.58291 V 148.5 h -0.58291 z" />
        <path
           id="path926"
           style="font-style:normal;font-variant:normal;font-weight:normal;font-stretch:normal;font-size:8.46666622px;font-family:'Century Gothic';-inkscape-font-specification:'Century Gothic';fill:#918a6f;stroke-width:0.26458332"
           d="M 59.938886,144.00208 V 148.5 h -0.570508 v -0.77308 q -0.363802,0.44235 -0.818555,0.66559 -0.450618,0.22325 -0.988053,0.22325 -0.95498,0 -1.632975,-0.6904 -0.673861,-0.69453 -0.673861,-1.68672 0,-0.97152 0.682129,-1.66191 0.682129,-0.6904 1.641243,-0.6904 0.553972,0 1.000456,0.23564 0.450619,0.23565 0.789616,0.70694 v -0.82683 z m -2.315104,0.44235 q -0.483692,0 -0.892969,0.23978 -0.409277,0.23565 -0.65319,0.66559 -0.239779,0.42995 -0.239779,0.90951 0,0.47542 0.243913,0.90951 0.243913,0.43408 0.65319,0.67799 0.413412,0.23978 0.884701,0.23978 0.475423,0 0.901237,-0.23978 0.425813,-0.23978 0.65319,-0.64906 0.23151,-0.40927 0.23151,-0.9219 0,-0.78135 -0.516764,-1.30638 -0.51263,-0.52504 -1.265039,-0.52504 z" />
        <path
           id="path928"
           style="font-style:normal;font-variant:normal;font-weight:normal;font-stretch:normal;font-size:8.46666622px;font-family:'Century Gothic';-inkscape-font-specification:'Century Gothic';fill:#918a6f;stroke-width:0.26458332"
           d="m 67.959067,144.93639 -0.458886,0.28526 q -0.595313,-0.78962 -1.624707,-0.78962 -0.822689,0 -1.368392,0.52917 -0.541569,0.52916 -0.541569,1.28571 0,0.49196 0.248047,0.92604 0.252181,0.43408 0.686263,0.67386 0.438216,0.23978 0.979785,0.23978 0.992187,0 1.620573,-0.78962 l 0.458886,0.30179 q -0.322461,0.48369 -0.868164,0.75241 -0.541569,0.26459 -1.2361,0.26459 -1.066601,0 -1.769401,-0.678 -0.702799,-0.67799 -0.702799,-1.64951 0,-0.65319 0.326595,-1.2113 0.330729,-0.56224 0.905371,-0.87643 0.574642,-0.31419 1.285709,-0.31419 0.446485,0 0.859896,0.13642 0.417546,0.13643 0.706934,0.35554 0.289388,0.21911 0.491959,0.5581 z" />
        <path
           id="path930"
           style="font-style:normal;font-variant:normal;font-weight:normal;font-stretch:normal;font-size:8.46666622px;font-family:'Century Gothic';-inkscape-font-specification:'Century Gothic';fill:#918a6f;stroke-width:0.26458332"
           d="m 71.196079,143.88633 q 1.037663,0 1.719792,0.75241 0.620117,0.68626 0.620117,1.6247 0,0.94258 -0.657324,1.64952 -0.65319,0.7028 -1.682585,0.7028 -1.033528,0 -1.690852,-0.7028 -0.65319,-0.70694 -0.65319,-1.64952 0,-0.93431 0.620117,-1.62057 0.682129,-0.75654 1.723925,-0.75654 z m 0,0.56637 q -0.719336,0 -1.2361,0.5333 -0.516764,0.5333 -0.516764,1.28985 0,0.48782 0.235644,0.9095 0.235645,0.42168 0.636654,0.65319 0.401009,0.22738 0.880566,0.22738 0.479558,0 0.880567,-0.22738 0.401009,-0.23151 0.636653,-0.65319 0.235645,-0.42168 0.235645,-0.9095 0,-0.75655 -0.520899,-1.28985 -0.516764,-0.5333 -1.231966,-0.5333 z" />
        <path
           id="path932"
           style="font-style:normal;font-variant:normal;font-weight:normal;font-stretch:normal;font-size:8.46666622px;font-family:'Century Gothic';-inkscape-font-specification:'Century Gothic';fill:#918a6f;stroke-width:0.26458332"
           d="m 74.606721,144.00208 h 0.578776 v 0.80616 q 0.347266,-0.46302 0.768946,-0.6904 0.421679,-0.23151 0.917773,-0.23151 0.504362,0 0.892969,0.25631 0.392741,0.25632 0.578776,0.6904 0.186035,0.43408 0.186035,1.35186 V 148.5 h -0.574642 v -2.14561 q 0,-0.77721 -0.06615,-1.03766 -0.103353,-0.44648 -0.388606,-0.66972 -0.285254,-0.22738 -0.744141,-0.22738 -0.525033,0 -0.942578,0.34726 -0.413412,0.34727 -0.545703,0.8599 -0.08268,0.33486 -0.08268,1.2237 V 148.5 H 74.60672 Z" />
        <path
           id="path934"
           style="font-style:normal;font-variant:normal;font-weight:normal;font-stretch:normal;font-size:8.46666622px;font-family:'Century Gothic';-inkscape-font-specification:'Century Gothic';fill:#918a6f;stroke-width:0.26458332"
           d="m 80.270461,142.3319 h 0.582911 v 1.67018 h 0.917773 v 0.4961 H 80.853372 V 148.5 h -0.582911 v -4.00182 h -0.789615 v -0.4961 h 0.789615 z" />
        <path
           id="path936"
           style="font-style:normal;font-variant:normal;font-weight:normal;font-stretch:normal;font-size:8.46666622px;font-family:'Century Gothic';-inkscape-font-specification:'Century Gothic';fill:#918a6f;stroke-width:0.26458332"
           d="m 82.424334,144.00208 h 0.591178 v 0.65733 q 0.264583,-0.38861 0.558105,-0.57878 0.293523,-0.1943 0.611849,-0.1943 0.239779,0 0.512631,0.15296 l -0.301791,0.48783 q -0.181901,-0.0786 -0.305924,-0.0786 -0.289388,0 -0.558106,0.23978 -0.268717,0.23564 -0.409277,0.73587 -0.107487,0.38447 -0.107487,1.55443 V 148.5 h -0.591178 z" />
        <path
           id="path938"
           style="font-style:normal;font-variant:normal;font-weight:normal;font-stretch:normal;font-size:8.46666622px;font-family:'Century Gothic';-inkscape-font-specification:'Century Gothic';fill:#918a6f;stroke-width:0.26458332"
           d="M 89.671437,144.00208 V 148.5 H 89.10093 v -0.77308 q -0.363803,0.44235 -0.818555,0.66559 -0.450619,0.22325 -0.988053,0.22325 -0.954981,0 -1.632976,-0.6904 -0.67386,-0.69453 -0.67386,-1.68672 0,-0.97152 0.682129,-1.66191 0.682128,-0.6904 1.641243,-0.6904 0.553971,0 1.000456,0.23564 0.450618,0.23565 0.789616,0.70694 v -0.82683 z m -2.315104,0.44235 q -0.483691,0 -0.892968,0.23978 -0.409278,0.23565 -0.653191,0.66559 -0.239778,0.42995 -0.239778,0.90951 0,0.47542 0.243913,0.90951 0.243912,0.43408 0.65319,0.67799 0.413411,0.23978 0.8847,0.23978 0.475423,0 0.901237,-0.23978 0.425814,-0.23978 0.65319,-0.64906 0.231511,-0.40927 0.231511,-0.9219 0,-0.78135 -0.516765,-1.30638 -0.51263,-0.52504 -1.265039,-0.52504 z" />
        <path
           id="path940"
           style="font-style:normal;font-variant:normal;font-weight:normal;font-stretch:normal;font-size:8.46666622px;font-family:'Century Gothic';-inkscape-font-specification:'Century Gothic';fill:#918a6f;stroke-width:0.26458332"
           d="M 97.80737,144.00208 V 148.5 h -0.570508 v -0.77308 q -0.363802,0.44235 -0.818554,0.66559 -0.450619,0.22325 -0.988054,0.22325 -0.95498,0 -1.632975,-0.6904 -0.67386,-0.69453 -0.67386,-1.68672 0,-0.97152 0.682129,-1.66191 0.682128,-0.6904 1.641243,-0.6904 0.553971,0 1.000456,0.23564 0.450618,0.23565 0.789615,0.70694 v -0.82683 z m -2.315104,0.44235 q -0.483691,0 -0.892969,0.23978 -0.409277,0.23565 -0.65319,0.66559 -0.239778,0.42995 -0.239778,0.90951 0,0.47542 0.243913,0.90951 0.243912,0.43408 0.65319,0.67799 0.413411,0.23978 0.8847,0.23978 0.475423,0 0.901237,-0.23978 0.425814,-0.23978 0.65319,-0.64906 0.23151,-0.40927 0.23151,-0.9219 0,-0.78135 -0.516764,-1.30638 -0.51263,-0.52504 -1.265039,-0.52504 z" />
        <path
           id="path942"
           style="font-style:normal;font-variant:normal;font-weight:normal;font-stretch:normal;font-size:8.46666622px;font-family:'Century Gothic';-inkscape-font-specification:'Century Gothic';fill:#918a6f;stroke-width:0.26458332"
           d="m 105.82756,144.93639 -0.45889,0.28526 q -0.59531,-0.78962 -1.62471,-0.78962 -0.82269,0 -1.36839,0.52917 -0.54157,0.52916 -0.54157,1.28571 0,0.49196 0.24805,0.92604 0.25218,0.43408 0.68626,0.67386 0.43822,0.23978 0.97979,0.23978 0.99218,0 1.62057,-0.78962 l 0.45889,0.30179 q -0.32247,0.48369 -0.86817,0.75241 -0.54157,0.26459 -1.2361,0.26459 -1.0666,0 -1.7694,-0.678 -0.7028,-0.67799 -0.7028,-1.64951 0,-0.65319 0.3266,-1.2113 0.33073,-0.56224 0.90537,-0.87643 0.57464,-0.31419 1.28571,-0.31419 0.44648,0 0.85989,0.13642 0.41755,0.13643 0.70694,0.35554 0.28938,0.21911 0.49196,0.5581 z" />
        <path
           id="path944"
           style="font-style:normal;font-variant:normal;font-weight:normal;font-stretch:normal;font-size:8.46666622px;font-family:'Century Gothic';-inkscape-font-specification:'Century Gothic';fill:#918a6f;stroke-width:0.26458332"
           d="m 109.06456,143.88633 q 1.03767,0 1.7198,0.75241 0.62011,0.68626 0.62011,1.6247 0,0.94258 -0.65732,1.64952 -0.65319,0.7028 -1.68259,0.7028 -1.03352,0 -1.69085,-0.7028 -0.65319,-0.70694 -0.65319,-1.64952 0,-0.93431 0.62012,-1.62057 0.68213,-0.75654 1.72392,-0.75654 z m 0,0.56637 q -0.71933,0 -1.2361,0.5333 -0.51676,0.5333 -0.51676,1.28985 0,0.48782 0.23564,0.9095 0.23565,0.42168 0.63666,0.65319 0.40101,0.22738 0.88056,0.22738 0.47956,0 0.88057,-0.22738 0.40101,-0.23151 0.63665,-0.65319 0.23565,-0.42168 0.23565,-0.9095 0,-0.75655 -0.5209,-1.28985 -0.51676,-0.5333 -1.23197,-0.5333 z" />
        <path
           id="path946"
           style="font-style:normal;font-variant:normal;font-weight:normal;font-stretch:normal;font-size:8.46666622px;font-family:'Century Gothic';-inkscape-font-specification:'Century Gothic';fill:#918a6f;stroke-width:0.26458332"
           d="m 112.25611,144.00208 h 0.59117 v 0.65733 q 0.26459,-0.38861 0.55811,-0.57878 0.29352,-0.1943 0.61185,-0.1943 0.23978,0 0.51263,0.15296 l -0.30179,0.48783 q -0.1819,-0.0786 -0.30593,-0.0786 -0.28938,0 -0.5581,0.23978 -0.26872,0.23564 -0.40928,0.73587 -0.10749,0.38447 -0.10749,1.55443 V 148.5 h -0.59117 z" />
        <path
           id="path948"
           style="font-style:normal;font-variant:normal;font-weight:normal;font-stretch:normal;font-size:8.46666622px;font-family:'Century Gothic';-inkscape-font-specification:'Century Gothic';fill:#918a6f;stroke-width:0.26458332"
           d="m 114.80271,144.00208 h 0.59118 v 0.65733 q 0.26459,-0.38861 0.55811,-0.57878 0.29352,-0.1943 0.61185,-0.1943 0.23977,0 0.51263,0.15296 l -0.30179,0.48783 q -0.1819,-0.0786 -0.30593,-0.0786 -0.28939,0 -0.5581,0.23978 -0.26872,0.23564 -0.40928,0.73587 -0.10749,0.38447 -0.10749,1.55443 V 148.5 h -0.59118 z" />
        <path
           id="path950"
           style="font-style:normal;font-variant:normal;font-weight:normal;font-stretch:normal;font-size:8.46666622px;font-family:'Century Gothic';-inkscape-font-specification:'Century Gothic';fill:#918a6f;stroke-width:0.26458332"
           d="m 117.49402,144.00208 h 0.58291 v 2.10013 q 0,0.76895 0.0827,1.05834 0.12402,0.41341 0.47128,0.65319 0.3514,0.23978 0.8351,0.23978 0.48369,0 0.81855,-0.23151 0.339,-0.23565 0.46716,-0.61599 0.0868,-0.26045 0.0868,-1.10381 v -2.10013 h 0.59118 v 2.20762 q 0,0.93018 -0.21911,1.40147 -0.21497,0.47128 -0.65319,0.74 -0.43408,0.26459 -1.0914,0.26459 -0.65733,0 -1.09968,-0.26459 -0.43821,-0.26872 -0.65732,-0.74414 -0.21498,-0.47956 -0.21498,-1.43867 z" />
        <path
           id="path952"
           style="font-style:normal;font-variant:normal;font-weight:normal;font-stretch:normal;font-size:8.46666622px;font-family:'Century Gothic';-inkscape-font-specification:'Century Gothic';fill:#918a6f;stroke-width:0.26458332"
           d="m 122.71954,144.00208 h 0.57464 v 0.82683 q 0.34314,-0.47129 0.78962,-0.70694 0.44649,-0.23564 0.99632,-0.23564 0.95912,0 1.64125,0.6904 0.68212,0.69039 0.68212,1.66191 0,0.99219 -0.67799,1.68672 -0.67386,0.6904 -1.62884,0.6904 -0.53744,0 -0.98805,-0.22325 -0.45062,-0.22324 -0.81443,-0.66559 v 2.41846 h -0.57464 z m 2.31511,0.44235 q -0.75241,0 -1.26918,0.52504 -0.51263,0.52503 -0.51263,1.30638 0,0.51263 0.22738,0.9219 0.23151,0.40928 0.65732,0.64906 0.42995,0.23978 0.90538,0.23978 0.46715,0 0.87643,-0.23978 0.41341,-0.24391 0.65732,-0.67799 0.24391,-0.43409 0.24391,-0.90951 0,-0.47956 -0.24391,-0.90951 -0.23978,-0.42994 -0.64905,-0.66559 -0.40928,-0.23978 -0.89297,-0.23978 z" />
        <path
           id="path954"
           style="font-style:normal;font-variant:normal;font-weight:normal;font-stretch:normal;font-size:8.46666622px;font-family:'Century Gothic';-inkscape-font-specification:'Century Gothic';fill:#918a6f;stroke-width:0.26458332"
           d="m 132.84812,144.93639 -0.45888,0.28526 q -0.59531,-0.78962 -1.62471,-0.78962 -0.82269,0 -1.36839,0.52917 -0.54157,0.52916 -0.54157,1.28571 0,0.49196 0.24805,0.92604 0.25218,0.43408 0.68626,0.67386 0.43822,0.23978 0.97978,0.23978 0.99219,0 1.62058,-0.78962 l 0.45888,0.30179 q -0.32246,0.48369 -0.86816,0.75241 -0.54157,0.26459 -1.2361,0.26459 -1.0666,0 -1.7694,-0.678 -0.7028,-0.67799 -0.7028,-1.64951 0,-0.65319 0.32659,-1.2113 0.33073,-0.56224 0.90538,-0.87643 0.57464,-0.31419 1.28571,-0.31419 0.44648,0 0.85989,0.13642 0.41755,0.13643 0.70693,0.35554 0.28939,0.21911 0.49196,0.5581 z M 130.49168,148.5 h 0.3638 l -0.0703,0.48783 q 0.0951,-0.0124 0.1571,-0.0124 0.20257,0 0.339,0.12403 0.13642,0.12815 0.13642,0.31832 0,0.27285 -0.24805,0.46302 -0.24804,0.19017 -0.69866,0.19017 -0.36794,0 -0.6904,-0.12402 l 0.0909,-0.28525 q 0.26459,0.0827 0.4961,0.0827 0.31005,0 0.43408,-0.0786 0.12402,-0.0744 0.12402,-0.19017 0,-0.0703 -0.0703,-0.12402 -0.0661,-0.0538 -0.18603,-0.0538 -0.0992,0 -0.28939,0.0372 z" />
        <path
           id="path956"
           style="font-style:normal;font-variant:normal;font-weight:normal;font-stretch:normal;font-size:8.46666622px;font-family:'Century Gothic';-inkscape-font-specification:'Century Gothic';fill:#918a6f;stroke-width:0.26458332"
           d="M 138.43745,144.00208 V 148.5 h -0.57051 v -0.77308 q -0.3638,0.44235 -0.81855,0.66559 -0.45062,0.22325 -0.98805,0.22325 -0.95498,0 -1.63298,-0.6904 -0.67386,-0.69453 -0.67386,-1.68672 0,-0.97152 0.68213,-1.66191 0.68213,-0.6904 1.64124,-0.6904 0.55397,0 1.00046,0.23564 0.45062,0.23565 0.78961,0.70694 v -0.82683 z m -2.3151,0.44235 q -0.48369,0 -0.89297,0.23978 -0.40928,0.23565 -0.65319,0.66559 -0.23978,0.42995 -0.23978,0.90951 0,0.47542 0.24391,0.90951 0.24392,0.43408 0.65319,0.67799 0.41341,0.23978 0.8847,0.23978 0.47543,0 0.90124,-0.23978 0.42581,-0.23978 0.65319,-0.64906 0.23151,-0.40927 0.23151,-0.9219 0,-0.78135 -0.51676,-1.30638 -0.51263,-0.52504 -1.26504,-0.52504 z m 1.30638,-2.11253 0.28939,0.40101 q -0.29766,0.21497 -0.50437,0.28939 -0.20257,0.0744 -0.42994,0.0744 -0.29766,0 -0.61185,-0.15296 -0.26872,-0.13229 -0.34313,-0.15296 -0.0992,-0.0289 -0.21498,-0.0289 -0.14469,0 -0.27698,0.0537 -0.12816,0.0496 -0.37621,0.23151 l -0.27285,-0.42168 q 0.3762,-0.40101 0.93018,-0.40101 0.26458,0 0.63251,0.16537 0.3514,0.16123 0.55398,0.16123 0.22737,0 0.62425,-0.21911 z" />
        <path
           id="path958"
           style="font-style:normal;font-variant:normal;font-weight:normal;font-stretch:normal;font-size:8.46666622px;font-family:'Century Gothic';-inkscape-font-specification:'Century Gothic';fill:#918a6f;stroke-width:0.26458332"
           d="m 141.8729,143.88633 q 1.03766,0 1.71979,0.75241 0.62012,0.68626 0.62012,1.6247 0,0.94258 -0.65733,1.64952 -0.65319,0.7028 -1.68258,0.7028 -1.03353,0 -1.69085,-0.7028 -0.65319,-0.70694 -0.65319,-1.64952 0,-0.93431 0.62011,-1.62057 0.68213,-0.75654 1.72393,-0.75654 z m 0,0.56637 q -0.71934,0 -1.2361,0.5333 -0.51677,0.5333 -0.51677,1.28985 0,0.48782 0.23565,0.9095 0.23564,0.42168 0.63665,0.65319 0.40101,0.22738 0.88057,0.22738 0.47956,0 0.88056,-0.22738 0.40101,-0.23151 0.63666,-0.65319 0.23564,-0.42168 0.23564,-0.9095 0,-0.75655 -0.5209,-1.28985 -0.51676,-0.5333 -1.23196,-0.5333 z" />
      </g>
    </g>
  </g>
</svg>
